<?xml version="1.0" encoding="UTF-8" standalone="no"?>
<!-- Created with Inkscape (http://www.inkscape.org/) -->

<svg
   xmlns:dc="http://purl.org/dc/elements/1.1/"
   xmlns:cc="http://creativecommons.org/ns#"
   xmlns:rdf="http://www.w3.org/1999/02/22-rdf-syntax-ns#"
   xmlns:svg="http://www.w3.org/2000/svg"
   xmlns="http://www.w3.org/2000/svg"
   xmlns:xlink="http://www.w3.org/1999/xlink"
   xmlns:sodipodi="http://sodipodi.sourceforge.net/DTD/sodipodi-0.dtd"
   xmlns:inkscape="http://www.inkscape.org/namespaces/inkscape"
   id="svg11037"
   height="96"
   width="96"
   version="1.1"
   inkscape:version="0.48.5 r10040"
   sodipodi:docname="blankon-tutorial.svg">
  <sodipodi:namedview
     pagecolor="#ffffff"
     bordercolor="#666666"
     borderopacity="1"
     objecttolerance="10"
     gridtolerance="10"
     guidetolerance="10"
     inkscape:pageopacity="0"
     inkscape:pageshadow="2"
     inkscape:window-width="1366"
     inkscape:window-height="716"
     id="namedview57"
     showgrid="false"
     inkscape:zoom="2.5729167"
     inkscape:cx="1.1659919"
     inkscape:cy="48"
     inkscape:window-x="0"
     inkscape:window-y="24"
     inkscape:window-maximized="1"
     inkscape:current-layer="svg11037" />
  <defs
     id="defs11039">
    <linearGradient
       id="linearGradient3688-2">
      <stop
         id="stop3690-6"
         offset="0" />
      <stop
         id="stop3692-4"
         style="stop-opacity:0"
         offset="1" />
    </linearGradient>
    <radialGradient
       id="radialGradient3071"
       xlink:href="#linearGradient3688-2"
       gradientUnits="userSpaceOnUse"
       cy="43.5"
       cx="4.993"
       gradientTransform="matrix(2.0038,0,0,1.4,27.988,-17.4)"
       r="2.5" />
    <radialGradient
       id="radialGradient3073"
       xlink:href="#linearGradient3688-2"
       gradientUnits="userSpaceOnUse"
       cy="43.5"
       cx="4.993"
       gradientTransform="matrix(2.0038,0,0,1.4,-20.012,-104.4)"
       r="2.5" />
    <clipPath
       id="clipPath3151"
       clipPathUnits="userSpaceOnUse">
      <rect
         id="rect3153"
         style="fill:#2d2d2d"
         rx="29.066"
         ry="29.066"
         height="106.96"
         width="106.96"
         y="-5.7865"
         x="-143.62" />
    </clipPath>
    <clipPath
       id="clipPath3009-1"
       clipPathUnits="userSpaceOnUse">
      <path
         id="path3011-3"
         style="opacity:.15;fill:#fff"
         d="m-2 956.36h-96v33.562l96 25.687v-59.25z" />
    </clipPath>
    <filter
       id="filter3979"
       y="-.12909"
       width="1.2242"
       height="1.2582"
       x="-.1121">
      <feGaussianBlur
         id="feGaussianBlur3981"
         stdDeviation="2.5974025" />
    </filter>
    <linearGradient
       id="linearGradient4040"
       y2="39.999"
       gradientUnits="userSpaceOnUse"
       x2="25.058"
       y1="47.028"
       x1="25.058">
      <stop
         id="stop3704-1"
         style="stop-opacity:0"
         offset="0" />
      <stop
         id="stop3710-2"
         offset=".5" />
      <stop
         id="stop3706-8"
         style="stop-opacity:0"
         offset="1" />
    </linearGradient>
    <radialGradient
       id="radialGradient4042"
       gradientUnits="userSpaceOnUse"
       cy="13.195"
       cx="12.011"
       gradientTransform="matrix(5.6342e-8,1.6801,-2.4235,1.0381e-8,51.251,962.75)"
       r="20">
      <stop
         id="stop3244-9"
         style="stop-color:#f89b7e"
         offset="0" />
      <stop
         id="stop3246-2"
         style="stop-color:#e35d4f"
         offset=".26238" />
      <stop
         id="stop3248-8"
         style="stop-color:#c6262e"
         offset=".66094" />
      <stop
         id="stop3250-8"
         style="stop-color:#690b2c"
         offset="1" />
    </radialGradient>
    <linearGradient
       id="linearGradient4044"
       y2="3.899"
       gradientUnits="userSpaceOnUse"
       x2="24"
       gradientTransform="translate(6.7726,969.65)"
       y1="44"
       x1="24">
      <stop
         id="stop2492"
         style="stop-color:#791235"
         offset="0" />
      <stop
         id="stop2494"
         style="stop-color:#dd3b27"
         offset="1" />
    </linearGradient>
    <linearGradient
       id="linearGradient4046"
       y2="44.024"
       gradientUnits="userSpaceOnUse"
       x2="23.97"
       gradientTransform="translate(6.7726,969.65)"
       y1="3.981"
       x1="23.97">
      <stop
         id="stop4248"
         style="stop-color:#fff"
         offset="0" />
      <stop
         id="stop4250"
         style="stop-color:#dcdcdc"
         offset="1" />
    </linearGradient>
    <linearGradient
       id="linearGradient4048"
       y2="43"
       gradientUnits="userSpaceOnUse"
       x2="24"
       gradientTransform="translate(6.7726,969.65)"
       y1="5"
       x1="24">
      <stop
         id="stop3310-1-4"
         style="stop-color:#fff"
         offset="0" />
      <stop
         id="stop3312-5-3"
         style="stop-color:#fff;stop-opacity:0"
         offset="1" />
    </linearGradient>
  </defs>
  <metadata
     id="metadata11042">
    <rdf:RDF>
      <cc:Work
         rdf:about="">
        <dc:format>image/svg+xml</dc:format>
        <dc:type
           rdf:resource="http://purl.org/dc/dcmitype/StillImage" />
        <dc:title />
      </cc:Work>
    </rdf:RDF>
  </metadata>
  <g
     id="g3897"
     transform="matrix(.86011 0 0 .86011 125.78 6.73)"
     clip-path="url(#clipPath3151)">
    <g
       id="g9354"
       transform="matrix(2.9067,0,0,2.9067,-179.87,-2841.7)">
      <g
         id="g3059">
        <g
           id="g2036"
           transform="matrix(1.1 0 0 .44444 4.3726 993.79)">
          <g
             id="g3712"
             style="opacity:.4"
             transform="matrix(1.0526,0,0,1.2857,-1.2632,-13.429)">
            <rect
               id="rect2801"
               style="fill:url(#radialGradient3071)"
               height="7"
               width="5"
               y="40"
               x="38" />
            <rect
               id="rect3696"
               style="fill:url(#radialGradient3073)"
               transform="scale(-1)"
               height="7"
               width="5"
               y="-47"
               x="-10" />
            <rect
               id="rect3700"
               style="fill:url(#linearGradient4040)"
               height="7"
               width="28"
               y="40"
               x="10" />
          </g>
        </g>
        <rect
           id="rect5505"
           style="stroke-linejoin:round;stroke:url(#linearGradient4044);stroke-linecap:round;fill:url(#radialGradient4042)"
           rx="2.2322"
           ry="2.2322"
           height="39"
           width="39"
           y="974.15"
           x="11.273" />
        <path
           id="path6711"
           style="fill:url(#linearGradient4046);fill-rule:evenodd"
           d="m34.585 974.65c-12.952 11.131-20.351 12.702-22.812 12.875v4c1.8577-0.25977 6.5271-1.1618 11.5-4.2812 6.3767-4 14-11.594 14-11.594-2.0908 4.1074-2.6996 18.271-2.74 37h13.365c1.0464 0 1.875-0.8286 1.875-1.875-2.4777-5.1179-4.0969-12.517-5.3125-19.125-1.0375-7.885 0.4945-14.779 1.0625-17h-10.938zm-22.812 19.394v4.4302c5.3772 0 13.644 6.4622 17.643 14.176h3.359c-1.879-7.0127-16.899-18.606-21.002-18.606z" />
        <path
           id="path6713"
           style="opacity:.15;fill-rule:evenodd"
           d="m11.773 994.65s30 4.5 39-5v-13.018c0-1.6013-0.71416-2.9643-2.9821-2.9643 0 0-21.018 13.839-36.018 12.411v8.5714z" />
        <path
           id="path6715"
           style="opacity:.15;fill-rule:evenodd"
           d="m50.773 998.65c-3.6296 3.2222-8.0847 9.588-11.209 15.033l-3.9112-0.027c3.6497-7.655 9.5514-15.174 15.12-20.506v5.5z" />
        <rect
           id="rect6741"
           style="opacity:.4;stroke-linejoin:round;stroke:url(#linearGradient4048);stroke-linecap:round;fill:none"
           rx="1.3652"
           ry="1.3652"
           height="37"
           width="37"
           y="975.15"
           x="12.273" />
      </g>
    </g>
  </g>
  <g
     id="g3041"
     transform="matrix(1.463407,0,0,1.463407,-22.246685,-22.243515)">
    <g
       transform="translate(123.25,-956.36)"
       id="g3033">
      <rect
         x="-101.25"
         y="978.35999"
         width="52"
         height="52"
         ry="14.13"
         rx="14.13"
         style="opacity:0.6;fill:#ffffff"
         id="rect3029" />
    </g>
    <g
       id="g3181"
       style="filter:url(#filter3979)"
       transform="matrix(0.68097045,0,0,0.68097045,15.52233,15.106756)">
      <path
         id="path3183"
         style="fill:none;stroke:#000000;stroke-width:11.5539999"
         d="m 65.43,47.529 c 0,12.426 -10.073,22.499 -22.499,22.499 -12.426,0 -22.499,-10.073 -22.499,-22.499 0,-12.426 10.073,-22.499 22.499,-22.499 12.426,0 22.499,10.073 22.499,22.499 z"
         inkscape:connector-curvature="0" />
      <path
         id="path3185"
         style="fill:#aa0000;stroke:#ff0000;stroke-width:9.39729977;stroke-linecap:round;stroke-linejoin:round"
         d="m 75.511,24.695 h 0.5281 v 48.289 h -0.528 z"
         inkscape:connector-curvature="0" />
    </g>
    <g
       id="g3166"
       transform="matrix(0.68097045,0,0,0.68097045,15.52233,15.106756)">
      <path
         id="path3497-9"
         style="fill:none;stroke:#000000;stroke-width:11.5539999"
         d="m 65.43,47.529 c 0,12.426 -10.073,22.499 -22.499,22.499 -12.426,0 -22.499,-10.073 -22.499,-22.499 0,-12.426 10.073,-22.499 22.499,-22.499 12.426,0 22.499,10.073 22.499,22.499 z"
         inkscape:connector-curvature="0" />
      <path
         id="rect4269-8"
         style="fill:#aa0000;stroke:#ff0000;stroke-width:9.39729977;stroke-linecap:round;stroke-linejoin:round"
         d="m 75.511,24.695 h 0.5281 v 48.289 h -0.528 z"
         inkscape:connector-curvature="0" />
    </g>
  </g>
  <rect
     height="92"
     x="-96"
     y="958.35999"
     width="92"
     ry="25"
     transform="matrix(0.9999852,0,0,0.9999852,98.002565,-956.3711)"
     rx="25"
     clip-path="url(#clipPath3009-1)"
     style="opacity:0.15;fill:#ffffff"
     id="rect3003" />
</svg>
